<svg id="svg" version="1.1" xmlns="http://www.w3.org/2000/svg" xmlns:xlink="http://www.w3.org/1999/xlink" width="400" height="399.87503905029683" viewBox="0, 0, 400,399.87503905029683"><g id="svgg"><path id="path0" d="M95.583 186.333 C 95.527 186.425,95.330 186.500,95.146 186.500 C 94.672 186.500,92.986 187.298,92.655 187.680 C 92.503 187.856,92.301 188.000,92.208 188.000 C 92.115 188.000,91.995 188.131,91.941 188.292 C 91.805 188.697,91.454 189.226,91.223 189.375 C 91.116 189.444,90.979 189.800,90.917 190.167 C 90.855 190.533,90.736 190.833,90.652 190.833 C 90.568 190.833,90.500 191.583,90.500 192.500 C 90.500 193.417,90.559 194.167,90.630 194.167 C 90.702 194.167,90.860 194.504,90.982 194.917 C 91.104 195.329,91.270 195.667,91.352 195.667 C 91.433 195.667,91.500 195.763,91.500 195.880 C 91.500 196.316,93.238 197.768,94.045 198.007 C 94.479 198.135,94.833 198.298,94.833 198.370 C 94.833 198.441,95.583 198.500,96.500 198.500 C 97.417 198.500,98.167 198.441,98.167 198.368 C 98.167 198.295,98.487 198.150,98.878 198.046 C 99.269 197.941,99.813 197.663,100.086 197.428 C 100.360 197.193,100.640 197.000,100.708 197.000 C 100.777 197.000,100.833 196.906,100.833 196.790 C 100.833 196.675,100.983 196.487,101.167 196.372 C 101.350 196.258,101.500 196.060,101.500 195.933 C 101.500 195.806,101.612 195.659,101.750 195.606 C 101.888 195.554,102.000 195.396,102.000 195.255 C 102.000 195.115,102.075 195.000,102.167 195.000 C 102.258 195.000,102.333 194.625,102.333 194.167 C 102.333 193.708,102.408 193.333,102.500 193.333 C 102.592 193.333,102.667 192.921,102.667 192.417 C 102.667 191.912,102.592 191.500,102.500 191.500 C 102.408 191.500,102.333 191.162,102.333 190.750 C 102.333 190.338,102.266 190.000,102.185 190.000 C 102.103 190.000,101.989 189.813,101.932 189.583 C 101.874 189.354,101.763 189.167,101.684 189.167 C 101.605 189.167,101.447 188.942,101.333 188.667 C 101.219 188.392,101.060 188.167,100.980 188.167 C 100.899 188.167,100.833 188.054,100.833 187.917 C 100.833 187.761,100.676 187.667,100.417 187.667 C 100.188 187.667,100.000 187.588,100.000 187.491 C 100.000 187.395,99.775 187.238,99.500 187.142 C 99.225 187.046,99.000 186.904,99.000 186.827 C 99.000 186.750,98.662 186.636,98.250 186.575 C 97.837 186.513,97.500 186.396,97.500 186.314 C 97.500 186.110,95.711 186.128,95.583 186.333 M116.667 186.333 C 116.667 186.425,116.410 186.500,116.095 186.500 C 115.781 186.500,115.425 186.597,115.304 186.715 C 115.182 186.834,114.840 187.030,114.542 187.152 C 114.244 187.274,114.000 187.440,114.000 187.520 C 114.000 187.601,113.893 187.667,113.762 187.667 C 113.631 187.667,113.370 187.873,113.181 188.125 C 112.992 188.377,112.761 188.674,112.668 188.785 C 112.575 188.897,112.407 189.197,112.294 189.452 C 112.182 189.708,112.037 189.956,111.971 190.004 C 111.076 190.662,111.764 195.496,112.868 196.301 C 113.032 196.421,113.167 196.627,113.167 196.759 C 113.167 196.892,113.275 197.000,113.407 197.000 C 113.540 197.000,113.747 197.131,113.868 197.292 C 114.167 197.690,114.676 197.955,115.396 198.090 C 115.728 198.153,116.000 198.270,116.000 198.352 C 116.000 198.438,163.420 198.500,229.500 198.500 C 291.925 198.500,343.000 198.441,343.000 198.370 C 343.000 198.298,343.344 198.138,343.764 198.014 C 344.184 197.890,344.567 197.686,344.615 197.561 C 344.663 197.436,344.793 197.333,344.904 197.333 C 345.075 197.333,345.477 196.925,346.335 195.882 C 346.426 195.771,346.500 195.560,346.500 195.412 C 346.500 195.264,346.613 195.030,346.750 194.893 C 346.888 194.755,347.000 194.386,347.000 194.071 C 347.000 193.757,347.075 193.500,347.167 193.500 C 347.262 193.500,347.333 193.000,347.333 192.333 C 347.333 191.692,347.267 191.167,347.186 191.167 C 347.104 191.167,346.987 190.829,346.925 190.417 C 346.864 190.004,346.743 189.667,346.656 189.667 C 346.570 189.667,346.500 189.554,346.500 189.417 C 346.500 189.279,346.425 189.167,346.333 189.167 C 346.242 189.167,346.167 189.070,346.167 188.951 C 346.167 188.241,343.639 186.500,342.608 186.500 C 342.365 186.500,342.167 186.425,342.167 186.333 C 342.167 186.222,304.472 186.167,229.417 186.167 C 154.361 186.167,116.667 186.222,116.667 186.333 M50.000 213.333 C 50.000 213.425,49.824 213.500,49.608 213.500 C 49.049 213.500,48.144 213.842,47.763 214.197 C 47.584 214.363,47.388 214.500,47.328 214.500 C 47.120 214.500,46.402 215.251,46.173 215.708 C 46.047 215.960,45.882 216.167,45.808 216.167 C 45.733 216.167,45.586 216.504,45.483 216.917 C 45.379 217.329,45.228 217.667,45.147 217.667 C 45.066 217.667,45.000 218.454,45.000 219.417 C 45.000 220.379,45.063 221.167,45.140 221.167 C 45.217 221.167,45.372 221.471,45.483 221.842 C 45.594 222.214,45.813 222.673,45.968 222.862 C 46.661 223.706,47.304 224.333,47.478 224.333 C 47.582 224.333,47.667 224.408,47.667 224.500 C 47.667 224.592,47.817 224.667,48.000 224.667 C 48.183 224.667,48.333 224.738,48.333 224.825 C 48.333 225.103,49.537 225.331,51.000 225.331 C 52.463 225.331,53.667 225.103,53.667 224.825 C 53.667 224.738,53.823 224.667,54.015 224.667 C 54.551 224.667,56.418 222.632,56.615 221.833 C 56.672 221.604,56.795 221.366,56.890 221.304 C 57.121 221.153,57.139 217.693,56.910 217.536 C 56.814 217.470,56.635 217.102,56.511 216.717 C 56.387 216.332,56.184 215.978,56.060 215.931 C 55.935 215.883,55.833 215.747,55.833 215.630 C 55.833 215.375,54.941 214.500,54.682 214.500 C 54.582 214.500,54.500 214.425,54.500 214.333 C 54.500 214.242,54.387 214.167,54.250 214.167 C 54.112 214.167,54.000 214.104,54.000 214.026 C 54.000 213.862,52.870 213.500,52.356 213.500 C 52.160 213.500,52.000 213.425,52.000 213.333 C 52.000 213.241,51.556 213.167,51.000 213.167 C 50.444 213.167,50.000 213.241,50.000 213.333 M71.167 213.333 C 71.167 213.425,70.945 213.500,70.675 213.500 C 70.141 213.500,69.381 213.788,69.030 214.123 C 68.909 214.239,68.747 214.333,68.671 214.333 C 68.441 214.333,67.333 215.379,67.333 215.596 C 67.333 215.707,67.235 215.835,67.116 215.881 C 66.996 215.927,66.793 216.291,66.665 216.691 C 66.536 217.090,66.360 217.466,66.273 217.526 C 66.063 217.671,66.070 221.002,66.281 221.141 C 66.372 221.201,66.562 221.591,66.702 222.007 C 67.014 222.937,68.597 224.667,69.135 224.667 C 69.336 224.667,69.500 224.738,69.500 224.825 C 69.500 225.316,72.043 225.331,153.801 225.332 C 236.457 225.333,238.333 225.322,238.333 224.814 C 238.333 224.733,238.487 224.667,238.675 224.667 C 239.014 224.667,239.254 224.452,240.293 223.225 C 241.055 222.324,241.060 222.316,241.287 221.667 C 241.882 219.963,241.678 217.304,240.860 216.092 C 240.360 215.351,239.392 214.333,239.187 214.333 C 239.112 214.333,238.882 214.187,238.676 214.008 C 238.469 213.829,237.970 213.633,237.567 213.572 C 237.163 213.512,236.833 213.396,236.833 213.314 C 236.833 213.229,202.038 213.167,154.000 213.167 C 98.889 213.167,71.167 213.222,71.167 213.333 M95.167 240.279 C 94.938 240.327,94.712 240.419,94.667 240.483 C 94.621 240.547,94.276 240.689,93.900 240.799 C 93.525 240.909,93.015 241.186,92.767 241.416 C 92.519 241.645,92.262 241.833,92.196 241.833 C 92.130 241.833,91.928 242.115,91.748 242.458 C 91.568 242.802,91.332 243.140,91.225 243.208 C 91.117 243.277,90.979 243.633,90.917 244.000 C 90.855 244.367,90.736 244.667,90.652 244.667 C 90.568 244.667,90.500 245.417,90.500 246.333 C 90.500 247.250,90.561 248.000,90.635 248.000 C 90.709 248.000,90.866 248.375,90.984 248.833 C 91.113 249.337,91.290 249.667,91.432 249.667 C 91.561 249.667,91.667 249.760,91.668 249.875 C 91.671 250.124,92.712 251.167,92.958 251.167 C 93.053 251.167,93.174 251.279,93.227 251.417 C 93.280 251.554,93.438 251.667,93.578 251.667 C 93.718 251.667,93.833 251.742,93.833 251.833 C 93.833 251.925,94.058 252.000,94.333 252.000 C 94.608 252.000,94.833 252.075,94.833 252.167 C 94.833 252.267,95.500 252.333,96.500 252.333 C 97.500 252.333,98.167 252.267,98.167 252.167 C 98.167 252.075,98.395 252.000,98.674 252.000 C 98.953 252.000,99.271 251.924,99.382 251.830 C 100.252 251.095,100.601 250.834,100.708 250.834 C 100.777 250.833,100.833 250.765,100.833 250.681 C 100.833 250.597,101.096 250.258,101.417 249.928 C 101.737 249.598,102.000 249.216,102.000 249.080 C 102.000 248.944,102.075 248.833,102.167 248.833 C 102.258 248.833,102.333 248.458,102.333 248.000 C 102.333 247.542,102.408 247.167,102.500 247.167 C 102.592 247.167,102.667 246.754,102.667 246.250 C 102.667 245.746,102.592 245.333,102.500 245.333 C 102.408 245.333,102.333 244.996,102.333 244.583 C 102.333 244.171,102.258 243.833,102.167 243.833 C 102.075 243.833,102.000 243.736,102.000 243.617 C 102.000 243.398,101.654 242.882,101.125 242.314 C 100.965 242.141,100.833 241.930,100.833 241.845 C 100.833 241.759,100.665 241.636,100.459 241.570 C 100.253 241.505,100.009 241.361,99.917 241.251 C 99.825 241.141,99.487 240.950,99.167 240.827 C 98.846 240.703,98.540 240.539,98.486 240.462 C 98.371 240.295,95.766 240.151,95.167 240.279 M115.958 240.286 C 115.706 240.324,115.500 240.415,115.500 240.488 C 115.500 240.562,115.180 240.744,114.788 240.893 C 113.815 241.265,112.716 242.324,112.286 243.305 C 112.178 243.550,112.036 243.789,111.971 243.837 C 111.516 244.171,111.512 248.328,111.966 248.659 C 112.034 248.709,112.181 248.956,112.291 249.208 C 112.402 249.460,112.569 249.667,112.663 249.667 C 112.757 249.667,112.833 249.765,112.833 249.885 C 112.833 250.125,113.790 251.167,114.011 251.167 C 114.087 251.167,114.352 251.354,114.599 251.583 C 114.860 251.825,115.248 252.000,115.524 252.000 C 115.786 252.000,116.000 252.075,116.000 252.167 C 116.000 252.278,149.528 252.333,216.250 252.333 C 282.972 252.333,316.500 252.278,316.500 252.167 C 316.500 252.075,316.762 252.000,317.083 252.000 C 317.404 252.000,317.667 251.930,317.667 251.845 C 317.667 251.759,317.815 251.642,317.996 251.584 C 318.426 251.448,319.850 250.014,320.168 249.397 C 320.305 249.133,320.460 248.879,320.514 248.833 C 321.107 248.331,321.124 244.063,320.535 243.684 C 320.449 243.629,320.329 243.424,320.268 243.230 C 320.076 242.614,318.460 241.066,317.750 240.818 C 317.383 240.690,317.030 240.510,316.964 240.418 C 316.849 240.255,117.019 240.124,115.958 240.286 M60.542 267.443 C 59.864 267.603,59.500 267.773,59.500 267.928 C 59.500 268.059,59.399 268.167,59.275 268.167 C 59.059 268.167,58.000 269.074,58.000 269.259 C 58.000 269.308,57.819 269.543,57.598 269.781 C 57.377 270.019,57.109 270.560,57.002 270.982 C 56.896 271.404,56.739 271.880,56.654 272.039 C 56.457 272.409,56.452 274.333,56.648 274.333 C 56.729 274.333,56.846 274.670,56.908 275.081 C 56.969 275.493,57.128 275.937,57.260 276.069 C 57.392 276.201,57.500 276.387,57.500 276.481 C 57.500 276.796,59.329 278.500,59.667 278.500 C 59.850 278.500,60.000 278.565,60.000 278.645 C 60.000 279.222,64.059 279.332,65.151 278.785 C 65.463 278.628,65.819 278.500,65.942 278.500 C 66.066 278.500,66.167 278.430,66.167 278.345 C 66.167 278.259,66.317 278.142,66.500 278.083 C 66.683 278.025,66.833 277.913,66.833 277.834 C 66.833 277.755,67.096 277.412,67.417 277.072 C 67.737 276.732,68.000 276.351,68.000 276.227 C 68.000 276.102,68.075 276.000,68.167 276.000 C 68.258 276.000,68.333 275.700,68.333 275.333 C 68.333 274.967,68.408 274.667,68.500 274.667 C 68.599 274.667,68.667 274.059,68.667 273.177 C 68.667 272.357,68.592 271.640,68.500 271.583 C 68.408 271.527,68.333 271.260,68.333 270.990 C 68.333 270.721,68.258 270.500,68.167 270.500 C 68.075 270.500,68.000 270.388,68.000 270.252 C 68.000 269.966,66.146 268.000,65.876 268.000 C 65.776 268.000,65.667 267.919,65.634 267.820 C 65.446 267.254,62.316 267.022,60.542 267.443 M82.167 267.280 C 81.568 267.379,80.833 267.685,80.833 267.835 C 80.833 267.906,80.659 268.008,80.446 268.061 C 80.011 268.170,79.111 268.971,78.949 269.392 C 78.891 269.543,78.766 269.667,78.672 269.667 C 78.577 269.667,78.500 269.854,78.500 270.083 C 78.500 270.313,78.431 270.500,78.347 270.500 C 78.126 270.500,77.833 272.020,77.833 273.167 C 77.833 274.313,78.126 275.833,78.347 275.833 C 78.431 275.833,78.500 275.983,78.500 276.167 C 78.500 276.350,78.575 276.500,78.667 276.500 C 78.758 276.500,78.833 276.612,78.833 276.750 C 78.833 276.887,78.904 277.000,78.990 277.000 C 79.076 277.000,79.489 277.337,79.908 277.750 C 80.400 278.235,80.815 278.500,81.084 278.500 C 81.313 278.500,81.500 278.571,81.500 278.659 C 81.500 279.140,83.520 279.165,122.833 279.165 C 162.147 279.165,164.167 279.140,164.167 278.659 C 164.167 278.571,164.354 278.500,164.583 278.500 C 164.813 278.500,165.000 278.425,165.000 278.333 C 165.000 278.242,165.085 278.167,165.189 278.167 C 165.292 278.167,165.625 277.904,165.927 277.583 C 166.230 277.262,166.547 277.000,166.633 277.000 C 166.718 277.000,166.923 276.644,167.087 276.208 C 167.252 275.773,167.468 275.363,167.568 275.298 C 167.818 275.135,167.816 271.197,167.566 271.036 C 167.465 270.970,167.288 270.630,167.174 270.280 C 167.060 269.930,166.861 269.603,166.733 269.554 C 166.605 269.505,166.500 269.379,166.501 269.274 C 166.502 269.031,165.323 268.000,165.043 268.000 C 164.928 268.000,164.833 267.941,164.833 267.870 C 164.833 267.242,165.384 267.251,123.167 267.230 C 100.846 267.219,82.396 267.242,82.167 267.280 M183.390 267.403 C 182.918 267.518,182.406 267.737,182.254 267.889 C 182.101 268.042,181.917 268.167,181.845 268.167 C 181.437 268.167,179.919 270.018,179.739 270.733 C 179.679 270.972,179.564 271.167,179.482 271.167 C 179.400 271.167,179.333 272.067,179.333 273.167 C 179.333 274.363,179.399 275.167,179.497 275.167 C 179.587 275.167,179.707 275.354,179.765 275.583 C 179.822 275.813,179.936 276.000,180.018 276.000 C 180.100 276.000,180.167 276.098,180.167 276.219 C 180.167 276.339,180.317 276.598,180.500 276.795 C 180.683 276.992,180.833 277.197,180.833 277.251 C 180.833 277.336,181.269 277.757,181.951 278.331 C 182.062 278.424,182.268 278.500,182.410 278.500 C 182.551 278.500,182.667 278.559,182.667 278.632 C 182.667 279.161,183.633 279.167,267.127 279.166 C 348.792 279.165,351.333 279.150,351.333 278.659 C 351.333 278.571,351.489 278.500,351.679 278.500 C 351.992 278.500,352.500 278.152,352.500 277.936 C 352.500 277.822,353.322 277.000,353.436 277.000 C 353.625 277.000,354.000 276.510,354.000 276.262 C 354.000 276.118,354.063 276.000,354.140 276.000 C 354.340 276.000,354.667 274.823,354.667 274.106 C 354.667 273.773,354.742 273.500,354.833 273.500 C 354.925 273.500,355.000 273.350,355.000 273.167 C 355.000 272.983,354.925 272.833,354.833 272.833 C 354.742 272.833,354.666 272.552,354.666 272.208 C 354.665 271.425,354.369 270.333,354.159 270.333 C 354.071 270.333,354.000 270.183,354.000 270.000 C 354.000 269.817,353.925 269.667,353.833 269.667 C 353.742 269.667,353.665 269.573,353.663 269.458 C 353.661 269.344,353.388 269.025,353.057 268.750 C 352.725 268.475,352.325 268.130,352.169 267.983 C 351.340 267.209,356.121 267.252,267.500 267.222 C 201.252 267.200,184.074 267.237,183.390 267.403 M195.333 294.112 C 195.104 294.160,194.879 294.249,194.833 294.309 C 194.787 294.369,194.450 294.523,194.083 294.651 C 193.424 294.881,191.667 296.455,191.667 296.815 C 191.667 296.917,191.608 297.000,191.537 297.000 C 190.665 297.000,190.652 302.381,191.522 303.215 C 191.693 303.379,191.833 303.573,191.833 303.647 C 191.833 303.721,192.021 303.999,192.250 304.266 C 192.479 304.532,192.666 304.806,192.666 304.875 C 192.667 304.944,192.817 305.000,193.000 305.000 C 193.183 305.000,193.333 305.075,193.333 305.167 C 193.333 305.258,193.442 305.333,193.575 305.333 C 193.708 305.333,193.877 305.434,193.950 305.557 C 194.374 306.268,199.333 306.379,199.333 305.677 C 199.333 305.599,199.521 305.489,199.750 305.432 C 199.979 305.374,200.167 305.253,200.167 305.163 C 200.167 305.074,200.279 305.000,200.417 305.000 C 200.554 305.000,200.667 304.934,200.667 304.853 C 200.667 304.772,200.817 304.666,201.000 304.618 C 201.183 304.570,201.333 304.412,201.333 304.266 C 201.333 304.120,201.408 304.000,201.500 304.000 C 201.592 304.000,201.667 303.887,201.667 303.750 C 201.667 303.612,201.736 303.500,201.820 303.500 C 201.905 303.500,202.059 303.242,202.163 302.927 C 202.267 302.613,202.442 302.325,202.551 302.288 C 202.827 302.196,202.831 298.204,202.555 298.034 C 202.448 297.968,202.307 297.702,202.242 297.443 C 202.177 297.185,202.021 296.934,201.895 296.885 C 201.770 296.837,201.667 296.694,201.667 296.568 C 201.667 296.193,200.183 294.864,199.525 294.650 C 199.190 294.541,198.872 294.383,198.818 294.300 C 198.705 294.127,195.962 293.978,195.333 294.112 M216.292 294.119 C 216.040 294.157,215.833 294.259,215.833 294.344 C 215.833 294.430,215.723 294.500,215.589 294.500 C 215.019 294.500,213.333 295.570,213.333 295.931 C 213.333 295.977,213.257 296.105,213.164 296.215 C 212.478 297.028,212.346 297.262,212.248 297.844 C 212.187 298.205,212.069 298.500,211.985 298.500 C 211.902 298.500,211.833 299.212,211.833 300.083 C 211.833 300.954,211.900 301.667,211.981 301.667 C 212.063 301.667,212.176 301.915,212.233 302.218 C 212.340 302.788,212.535 303.092,213.458 304.125 C 213.756 304.459,214.000 304.792,214.000 304.866 C 214.000 304.940,214.153 305.000,214.340 305.000 C 214.655 305.000,214.811 305.090,215.395 305.610 C 216.011 306.157,216.753 306.165,268.117 306.166 C 318.272 306.167,321.000 306.141,321.000 305.671 C 321.000 305.597,321.188 305.489,321.417 305.432 C 321.646 305.374,321.833 305.253,321.833 305.163 C 321.833 305.074,321.948 305.000,322.088 305.000 C 322.498 305.000,323.817 303.475,324.034 302.750 C 324.144 302.383,324.312 302.030,324.409 301.964 C 324.650 301.800,324.641 298.192,324.399 298.035 C 324.298 297.970,324.118 297.619,323.999 297.256 C 323.725 296.415,322.279 294.943,321.469 294.680 C 321.131 294.571,320.825 294.392,320.789 294.282 C 320.725 294.091,217.529 293.929,216.292 294.119 M133.583 321.101 C 132.948 321.262,132.333 321.541,132.333 321.669 C 132.333 321.739,132.157 321.842,131.941 321.896 C 131.482 322.011,130.333 323.017,130.333 323.304 C 130.333 323.412,130.265 323.500,130.182 323.500 C 129.848 323.500,129.333 324.947,129.333 325.886 C 129.333 326.407,129.258 326.833,129.167 326.833 C 129.075 326.833,129.000 326.946,129.000 327.083 C 129.000 327.221,129.075 327.333,129.167 327.333 C 129.258 327.333,129.333 327.732,129.333 328.219 C 129.333 329.110,129.843 330.500,130.171 330.500 C 130.260 330.500,130.333 330.582,130.333 330.683 C 130.333 330.877,131.391 332.000,131.574 332.000 C 131.632 332.000,131.842 332.150,132.038 332.333 C 132.235 332.517,132.526 332.667,132.684 332.667 C 132.843 332.667,133.003 332.760,133.042 332.875 C 133.275 333.577,138.500 332.859,138.500 332.125 C 138.500 332.056,138.615 332.000,138.755 332.000 C 138.896 332.000,139.054 331.887,139.106 331.750 C 139.159 331.612,139.266 331.500,139.344 331.500 C 139.672 331.500,140.342 330.602,140.619 329.791 C 140.783 329.310,140.988 328.866,141.074 328.803 C 141.284 328.652,141.278 325.342,141.067 325.197 C 140.977 325.134,140.797 324.757,140.669 324.357 C 140.540 323.958,140.337 323.594,140.217 323.548 C 140.098 323.502,140.000 323.386,140.000 323.291 C 140.000 323.073,138.908 322.000,138.687 322.000 C 138.597 322.000,138.425 321.905,138.304 321.790 C 137.713 321.226,134.779 320.798,133.583 321.101 M154.583 321.112 C 154.076 321.224,153.276 321.550,153.035 321.744 C 152.917 321.839,152.551 322.160,152.220 322.458 C 151.890 322.756,151.556 323.000,151.477 323.000 C 151.398 323.000,151.333 323.150,151.333 323.333 C 151.333 323.517,151.261 323.667,151.173 323.667 C 151.085 323.667,150.920 323.985,150.806 324.375 C 150.693 324.765,150.525 325.134,150.434 325.197 C 150.342 325.259,150.268 326.067,150.268 327.000 C 150.268 327.933,150.342 328.741,150.434 328.803 C 150.525 328.866,150.693 329.235,150.806 329.625 C 150.920 330.015,151.085 330.333,151.173 330.333 C 151.261 330.333,151.333 330.433,151.333 330.554 C 151.333 330.785,152.012 331.500,152.231 331.500 C 152.300 331.500,152.462 331.594,152.589 331.708 C 153.146 332.207,153.346 332.338,154.109 332.700 L 154.917 333.083 206.819 333.083 C 248.194 333.083,258.736 333.041,258.792 332.875 C 258.830 332.760,258.968 332.667,259.099 332.667 C 259.412 332.667,259.999 332.333,260.417 331.917 C 260.602 331.733,260.944 331.485,261.178 331.364 C 261.412 331.243,261.741 330.887,261.911 330.572 C 262.080 330.258,262.273 330.000,262.340 330.000 C 262.500 330.000,262.833 328.654,262.833 328.010 C 262.833 327.729,262.908 327.500,263.000 327.500 C 263.092 327.500,263.167 327.275,263.167 327.000 C 263.167 326.725,263.092 326.500,263.000 326.500 C 262.908 326.500,262.833 326.256,262.832 325.958 C 262.831 325.274,262.529 324.167,262.344 324.167 C 262.266 324.167,262.155 323.977,262.097 323.746 C 262.002 323.367,261.311 322.596,260.342 321.788 C 259.352 320.963,261.864 320.999,206.507 321.019 C 178.132 321.030,154.767 321.072,154.583 321.112 " stroke="none" fill="#e4147c" fill-rule="evenodd"></path><path id="path1" d="M222.792 66.612 C 221.898 66.649,221.167 66.740,221.167 66.816 C 221.167 66.891,220.248 67.006,219.125 67.071 C 218.002 67.136,217.058 67.259,217.028 67.345 C 216.997 67.430,216.303 67.500,215.486 67.500 C 214.669 67.500,214.000 67.567,214.000 67.650 C 214.000 67.732,213.456 67.854,212.792 67.920 C 212.127 67.986,211.546 68.090,211.500 68.152 C 211.425 68.253,208.878 68.737,207.292 68.951 C 206.948 68.997,206.667 69.102,206.667 69.184 C 206.667 69.266,206.423 69.334,206.125 69.334 C 205.827 69.335,205.369 69.447,205.106 69.584 C 204.843 69.721,204.465 69.833,204.266 69.833 C 204.066 69.833,203.231 70.050,202.410 70.314 C 200.808 70.830,199.826 71.083,199.625 71.032 C 199.556 71.014,199.500 71.075,199.500 71.167 C 199.500 71.258,199.279 71.333,199.010 71.333 C 198.740 71.333,198.473 71.408,198.417 71.500 C 198.360 71.592,198.168 71.667,197.990 71.667 C 197.812 71.667,197.667 71.739,197.667 71.828 C 197.667 71.917,197.554 71.946,197.417 71.894 C 197.279 71.841,197.167 71.867,197.167 71.951 C 197.167 72.035,196.792 72.200,196.334 72.317 C 195.876 72.435,195.459 72.599,195.407 72.682 C 195.356 72.765,195.088 72.833,194.812 72.833 C 194.535 72.833,194.197 72.946,194.060 73.083 C 193.922 73.221,193.665 73.333,193.488 73.333 C 193.311 73.333,193.167 73.399,193.167 73.480 C 193.167 73.561,192.829 73.712,192.417 73.816 C 192.004 73.920,191.667 74.062,191.667 74.133 C 191.667 74.203,191.325 74.361,190.907 74.485 C 190.490 74.608,190.045 74.812,189.919 74.938 C 189.793 75.064,189.576 75.167,189.436 75.167 C 189.110 75.167,188.333 75.519,188.333 75.667 C 188.333 75.729,188.015 75.880,187.625 76.003 C 187.235 76.126,186.798 76.325,186.654 76.446 C 186.509 76.567,186.303 76.667,186.195 76.667 C 186.088 76.667,186.000 76.742,186.000 76.833 C 186.000 76.925,185.850 77.000,185.667 77.000 C 185.483 77.000,185.333 77.060,185.333 77.133 C 185.333 77.206,185.052 77.368,184.708 77.492 C 184.365 77.616,183.804 77.893,183.462 78.108 C 183.120 78.324,182.726 78.500,182.587 78.500 C 182.447 78.500,182.333 78.570,182.333 78.656 C 182.333 78.742,182.071 78.907,181.750 79.023 C 181.429 79.139,181.167 79.298,181.167 79.377 C 181.167 79.455,181.092 79.473,181.000 79.417 C 180.908 79.360,180.833 79.384,180.833 79.470 C 180.833 79.556,180.608 79.719,180.333 79.833 C 180.058 79.947,179.833 80.098,179.833 80.169 C 179.833 80.239,179.646 80.344,179.417 80.402 C 179.188 80.459,179.000 80.580,179.000 80.670 C 179.000 80.760,178.915 80.833,178.812 80.833 C 178.708 80.833,178.258 81.096,177.811 81.417 C 177.365 81.738,176.924 82.000,176.833 82.000 C 176.741 82.000,176.667 82.075,176.667 82.167 C 176.667 82.258,176.573 82.334,176.458 82.335 C 176.344 82.336,175.940 82.580,175.560 82.877 C 174.561 83.659,174.216 83.886,174.088 83.847 C 174.025 83.827,173.811 83.988,173.612 84.204 C 173.413 84.420,173.044 84.700,172.792 84.827 C 172.540 84.953,172.333 85.119,172.333 85.195 C 172.333 85.271,172.227 85.333,172.097 85.333 C 171.967 85.333,171.836 85.394,171.806 85.468 C 171.775 85.543,171.225 85.994,170.583 86.470 C 169.942 86.947,169.264 87.486,169.077 87.669 C 168.891 87.851,168.682 88.000,168.614 88.000 C 168.545 88.000,168.226 88.263,167.906 88.583 C 167.585 88.904,167.254 89.167,167.171 89.167 C 167.087 89.167,166.921 89.300,166.801 89.463 C 166.681 89.626,166.210 90.057,165.754 90.421 C 164.241 91.630,156.167 99.861,156.167 100.195 C 156.167 100.271,156.092 100.333,156.000 100.333 C 155.908 100.333,155.833 100.405,155.833 100.494 C 155.833 100.582,155.496 101.001,155.083 101.426 C 154.671 101.850,154.333 102.265,154.333 102.349 C 154.333 102.432,154.263 102.500,154.178 102.500 C 154.092 102.500,153.975 102.649,153.917 102.831 C 153.860 103.013,153.592 103.382,153.323 103.652 C 153.054 103.921,152.833 104.184,152.833 104.237 C 152.833 104.338,152.654 104.558,151.830 105.464 C 151.557 105.765,151.333 106.126,151.333 106.266 C 151.333 106.405,151.258 106.473,151.167 106.417 C 151.075 106.360,151.000 106.427,151.000 106.565 C 151.000 106.703,150.813 107.018,150.583 107.266 C 150.354 107.513,150.167 107.761,150.166 107.816 C 150.166 107.871,149.977 108.137,149.745 108.406 C 149.513 108.676,149.280 109.070,149.227 109.281 C 149.174 109.493,149.067 109.667,148.990 109.667 C 148.912 109.667,148.724 109.929,148.572 110.250 C 148.420 110.571,148.238 110.833,148.168 110.833 C 148.098 110.833,147.949 111.053,147.838 111.321 C 147.727 111.590,147.497 111.935,147.328 112.089 C 147.158 112.242,146.971 112.585,146.913 112.851 C 146.855 113.116,146.739 113.333,146.656 113.333 C 146.573 113.333,146.395 113.596,146.261 113.917 C 146.127 114.237,145.950 114.500,145.869 114.500 C 145.787 114.500,145.621 114.800,145.500 115.167 C 145.379 115.533,145.224 115.833,145.155 115.833 C 145.087 115.833,144.725 116.452,144.351 117.208 C 143.976 117.965,143.666 118.508,143.660 118.417 C 143.655 118.325,143.535 118.581,143.393 118.986 C 143.252 119.390,143.030 119.827,142.901 119.956 C 142.772 120.085,142.667 120.283,142.667 120.395 C 142.667 120.693,142.272 121.497,142.125 121.499 C 142.056 121.499,142.000 121.614,142.000 121.752 C 142.000 122.002,141.678 122.673,141.481 122.833 C 141.424 122.879,141.325 123.104,141.259 123.333 C 141.193 123.563,140.965 124.125,140.753 124.583 C 140.422 125.295,139.731 126.960,139.125 128.500 C 139.035 128.729,138.895 129.047,138.814 129.206 C 138.733 129.365,138.667 129.609,138.667 129.748 C 138.667 129.886,138.606 130.000,138.532 130.000 C 138.458 130.000,138.261 130.527,138.094 131.170 C 137.927 131.814,137.734 132.375,137.664 132.418 C 137.595 132.461,137.485 132.778,137.420 133.123 C 137.356 133.468,137.167 134.050,137.001 134.417 C 136.834 134.783,136.606 135.552,136.494 136.125 C 136.382 136.698,136.233 137.167,136.162 137.167 C 136.092 137.167,135.994 137.448,135.944 137.792 C 135.784 138.884,135.632 139.500,135.523 139.500 C 135.464 139.500,135.393 139.892,135.364 140.372 C 135.335 140.851,135.249 141.283,135.173 141.330 C 135.096 141.378,134.980 141.848,134.914 142.375 C 134.849 142.902,134.742 143.333,134.677 143.333 C 134.612 143.333,134.457 144.046,134.333 144.917 C 134.210 145.787,134.046 146.500,133.971 146.500 C 133.895 146.500,133.833 147.063,133.833 147.750 C 133.833 148.438,133.766 149.000,133.684 149.000 C 133.602 149.000,133.482 149.675,133.417 150.500 C 133.351 151.325,133.246 152.000,133.183 152.000 C 133.120 152.000,133.050 152.281,133.027 152.625 C 133.005 152.969,132.916 154.112,132.829 155.167 C 132.743 156.221,132.671 157.740,132.669 158.542 C 132.668 159.344,132.599 160.000,132.516 160.000 C 132.432 160.000,132.362 161.153,132.360 162.583 C 132.357 164.080,132.420 165.167,132.511 165.167 C 132.596 165.167,132.667 165.330,132.667 165.530 C 132.667 166.002,133.029 167.000,133.200 167.000 C 133.273 167.000,133.333 167.094,133.333 167.210 C 133.333 167.325,133.486 167.515,133.673 167.632 C 133.860 167.749,133.975 167.906,133.928 167.982 C 133.881 168.058,134.159 168.260,134.546 168.430 C 134.933 168.601,135.287 168.787,135.333 168.843 C 135.722 169.321,138.032 169.333,229.399 169.333 C 320.290 169.333,323.500 169.316,323.500 168.838 C 323.500 168.763,323.706 168.652,323.958 168.589 C 324.464 168.463,325.667 167.276,325.667 166.903 C 325.667 166.773,325.725 166.667,325.797 166.667 C 326.429 166.667,326.448 153.762,325.816 153.528 C 325.734 153.497,325.663 153.160,325.659 152.778 C 325.652 152.100,325.237 148.581,325.086 147.917 C 324.785 146.596,324.516 144.984,324.509 144.458 C 324.504 144.115,324.435 143.833,324.355 143.833 C 324.218 143.833,324.110 143.349,323.888 141.750 C 323.837 141.383,323.726 140.951,323.640 140.788 C 323.555 140.626,323.530 140.420,323.585 140.330 C 323.641 140.240,323.616 140.167,323.531 140.167 C 323.376 140.167,323.219 139.622,323.051 138.500 C 323.002 138.179,322.909 137.879,322.843 137.833 C 322.777 137.787,322.624 137.262,322.503 136.667 C 322.382 136.071,322.210 135.490,322.121 135.375 C 322.032 135.260,322.015 135.167,322.083 135.167 C 322.152 135.167,322.137 135.073,322.050 134.958 C 321.964 134.844,321.795 134.412,321.675 134.000 C 321.555 133.587,321.354 133.014,321.228 132.725 C 321.103 132.436,321.000 132.085,321.000 131.944 C 321.000 131.803,320.913 131.477,320.806 131.219 C 320.700 130.961,320.625 130.694,320.640 130.625 C 320.655 130.556,320.592 130.500,320.500 130.500 C 320.408 130.500,320.333 130.354,320.333 130.177 C 320.333 129.999,320.258 129.807,320.167 129.750 C 320.075 129.693,320.000 129.464,320.000 129.240 C 320.000 129.016,319.939 128.833,319.865 128.833 C 319.791 128.833,319.631 128.440,319.511 127.958 C 319.390 127.477,319.201 126.971,319.091 126.833 C 318.981 126.696,318.800 126.265,318.689 125.875 C 318.578 125.485,318.427 125.167,318.353 125.167 C 318.280 125.167,318.118 124.848,317.993 124.458 C 317.867 124.069,317.593 123.420,317.383 123.017 C 317.172 122.614,317.000 122.182,317.000 122.059 C 317.000 121.935,316.925 121.833,316.833 121.833 C 316.742 121.833,316.667 121.754,316.667 121.656 C 316.667 121.470,315.495 118.977,315.340 118.833 C 315.143 118.651,314.833 117.990,314.833 117.752 C 314.833 117.614,314.754 117.500,314.657 117.500 C 314.560 117.500,314.527 117.425,314.583 117.333 C 314.640 117.242,314.625 117.167,314.551 117.167 C 314.476 117.167,314.309 116.923,314.179 116.625 C 314.049 116.327,313.895 116.046,313.837 116.000 C 313.737 115.922,312.839 114.397,312.083 113.023 C 311.900 112.689,311.619 112.271,311.458 112.094 C 311.298 111.916,311.167 111.676,311.167 111.560 C 311.167 111.445,311.061 111.290,310.933 111.217 C 310.804 111.143,310.673 110.933,310.641 110.750 C 310.609 110.567,310.430 110.267,310.243 110.083 C 310.056 109.900,309.800 109.544,309.673 109.292 C 309.547 109.040,309.381 108.833,309.305 108.833 C 309.229 108.833,309.167 108.731,309.167 108.606 C 309.167 108.481,308.993 108.200,308.781 107.981 C 308.569 107.762,308.215 107.283,307.996 106.917 C 307.776 106.550,307.518 106.162,307.423 106.055 C 307.328 105.948,307.100 105.665,306.917 105.426 C 306.733 105.187,306.490 104.886,306.375 104.758 C 306.260 104.629,306.167 104.448,306.167 104.355 C 306.167 104.262,306.029 104.088,305.862 103.968 C 305.694 103.848,305.415 103.525,305.241 103.250 C 305.067 102.975,304.810 102.638,304.670 102.500 C 304.529 102.362,304.309 102.044,304.179 101.792 C 304.050 101.540,303.913 101.365,303.875 101.403 C 303.777 101.501,303.167 100.868,303.167 100.668 C 303.167 100.577,303.017 100.409,302.833 100.295 C 302.650 100.180,302.500 100.005,302.500 99.905 C 302.500 99.805,302.313 99.623,302.083 99.500 C 301.854 99.377,301.667 99.156,301.667 99.009 C 301.667 98.861,301.517 98.632,301.333 98.500 C 301.150 98.368,301.000 98.164,301.000 98.047 C 301.000 97.929,300.935 97.852,300.856 97.875 C 300.696 97.921,299.500 96.680,299.500 96.467 C 299.500 96.394,299.416 96.333,299.314 96.333 C 299.109 96.333,298.000 95.181,298.000 94.967 C 298.000 94.894,297.887 94.833,297.750 94.833 C 297.612 94.833,297.500 94.774,297.500 94.701 C 297.500 94.569,296.389 93.333,296.270 93.333 C 296.235 93.333,295.906 93.033,295.539 92.667 C 295.173 92.300,294.920 92.000,294.978 91.999 C 295.036 91.999,294.842 91.852,294.547 91.672 C 294.252 91.492,293.717 91.042,293.358 90.672 C 292.999 90.303,292.638 90.000,292.554 90.000 C 292.471 90.000,292.127 89.700,291.790 89.333 C 291.453 88.967,291.104 88.667,291.015 88.667 C 290.925 88.667,290.754 88.529,290.634 88.360 C 290.515 88.191,290.229 87.956,290.000 87.837 C 289.580 87.619,289.299 87.393,288.597 86.708 C 288.385 86.502,288.152 86.333,288.078 86.333 C 288.005 86.333,287.826 86.221,287.681 86.084 C 287.194 85.624,285.832 84.667,285.665 84.667 C 285.574 84.667,285.500 84.598,285.500 84.514 C 285.500 84.429,285.219 84.188,284.875 83.978 C 284.531 83.768,284.151 83.499,284.030 83.381 C 283.909 83.263,283.710 83.167,283.589 83.167 C 283.468 83.167,283.326 83.054,283.273 82.917 C 283.220 82.779,283.062 82.667,282.922 82.667 C 282.782 82.667,282.667 82.592,282.667 82.500 C 282.667 82.408,282.560 82.333,282.431 82.333 C 282.301 82.333,282.169 82.277,282.139 82.208 C 282.059 82.029,280.706 81.167,280.504 81.167 C 280.410 81.167,280.333 81.092,280.333 81.000 C 280.333 80.908,280.215 80.833,280.071 80.833 C 279.927 80.833,279.705 80.740,279.577 80.625 C 279.059 80.160,278.870 80.033,278.281 79.754 C 277.943 79.593,277.667 79.402,277.667 79.328 C 277.667 79.254,277.447 79.145,277.178 79.086 C 276.910 79.027,276.600 78.871,276.491 78.739 C 276.382 78.608,276.152 78.500,275.980 78.500 C 275.807 78.500,275.667 78.425,275.667 78.333 C 275.667 78.242,275.554 78.167,275.417 78.167 C 275.279 78.167,275.167 78.098,275.167 78.014 C 275.167 77.930,274.829 77.732,274.417 77.574 C 274.004 77.417,273.667 77.223,273.667 77.144 C 273.667 77.065,273.583 77.000,273.482 77.000 C 273.231 77.000,270.764 75.784,270.694 75.626 C 270.664 75.557,270.566 75.500,270.477 75.500 C 270.277 75.500,267.449 74.294,267.333 74.159 C 267.287 74.106,266.800 73.924,266.250 73.756 C 265.700 73.587,265.212 73.404,265.167 73.349 C 264.963 73.107,264.302 72.833,263.919 72.833 C 263.689 72.833,263.500 72.767,263.500 72.685 C 263.500 72.604,263.220 72.485,262.878 72.420 C 262.536 72.356,262.105 72.219,261.920 72.116 C 261.735 72.013,261.546 71.919,261.500 71.908 C 261.289 71.857,260.723 71.628,260.461 71.488 C 260.301 71.403,259.945 71.333,259.669 71.333 C 259.393 71.333,259.167 71.265,259.167 71.181 C 259.167 71.098,258.848 70.977,258.458 70.914 C 258.069 70.850,257.412 70.666,257.000 70.506 C 255.765 70.025,255.085 69.833,254.613 69.833 C 254.368 69.833,254.167 69.758,254.167 69.667 C 254.167 69.575,254.110 69.513,254.042 69.529 C 253.765 69.592,252.333 69.287,252.333 69.165 C 252.333 69.092,252.015 68.996,251.625 68.949 C 250.064 68.763,247.245 68.262,247.167 68.157 C 247.036 67.982,244.891 67.641,243.375 67.554 C 242.619 67.511,242.000 67.414,242.000 67.340 C 242.000 67.265,241.081 67.149,239.958 67.082 C 238.835 67.015,237.869 66.885,237.811 66.793 C 237.703 66.622,226.002 66.481,222.792 66.612 " stroke="none" fill="#54cccb" fill-rule="evenodd"></path><path id="path2" d="" stroke="none" fill="#e83ca4" fill-rule="evenodd"></path><path id="path3" d="" stroke="none" fill="#a09ca4" fill-rule="evenodd"></path><path id="path4" d="" stroke="none" fill="#54d0a4" fill-rule="evenodd"></path></g></svg>