<?xml version="1.0" encoding="utf-8"?>
<!-- Generator: Adobe Illustrator 26.0.3, SVG Export Plug-In . SVG Version: 6.00 Build 0)  -->
<svg version="1.0" id="katman_1" xmlns="http://www.w3.org/2000/svg" xmlns:xlink="http://www.w3.org/1999/xlink" x="0px" y="0px"
	 viewBox="0 0 800 600" style="enable-background:new 0 0 800 600;" xml:space="preserve">
<style type="text/css">
	.st0{fill:#F4CE6F;}
	.st1{fill:#FFFFFF;}
</style>
<path class="st0" d="M399.8,546.1c136.2,0,246.6-110.4,246.6-246.6C646.4,163.4,536,53,399.8,53c-136.2,0-246.6,110.4-246.6,246.6
	C153.3,435.8,263.7,546.1,399.8,546.1z"/>
<path class="st1" d="M368.3,419.5c48.8,0,88.4-39.6,88.4-88.4s-39.6-88.4-88.4-88.4s-88.4,39.6-88.4,88.4S319.5,419.5,368.3,419.5z
	 M368.3,449.5c-65.4,0-118.4-53-118.4-118.4s53-118.4,118.4-118.4s118.4,53,118.4,118.4S433.6,449.5,368.3,449.5z"/>
<path class="st1" d="M431.4,356.4c48.8,0,88.4-39.6,88.4-88.4s-39.6-88.4-88.4-88.4c-48.8,0-88.4,39.6-88.4,88.4
	S382.6,356.4,431.4,356.4z M431.4,386.4C366,386.4,313,333.4,313,268s53-118.4,118.4-118.4s118.4,53,118.4,118.4
	S496.7,386.4,431.4,386.4z"/>
</svg>
